<?xml version="1.0" encoding="utf-8"?>
<!-- Generator: Adobe Illustrator 28.1.0, SVG Export Plug-In . SVG Version: 6.00 Build 0)  -->
<svg version="1.1" id="Capa_1" xmlns="http://www.w3.org/2000/svg" xmlns:xlink="http://www.w3.org/1999/xlink" x="0px" y="0px"
	 viewBox="0 0 113.4 113.4" style="enable-background:new 0 0 113.4 113.4;" xml:space="preserve">
<style type="text/css">
	.st0{fill:#020203;}
	.st1{fill:#FFFFFF;}
</style>
<g>
	<path class="st0" d="M113.4,56.7C113.4,25.4,88,0,56.7,0S0,25.4,0,56.7c0,28.3,20.7,51.7,47.9,56V73.1H33.4V56.7h14.4V44.2
		c0-14.2,8.4-22,21.3-22c6.2,0,12.7,1.1,12.7,1.1v13.9h-7.1c-7.1,0-9.2,4.4-9.2,8.8v10.7h15.7l-2.5,16.4H65.5v39.6
		C92.6,108.4,113.4,85,113.4,56.7z"/>
	<path class="st1" d="M78.8,73.1l2.5-16.4H65.5V46c0-4.5,2.2-8.8,9.2-8.8h7.1V23.3c0,0-6.5-1.1-12.7-1.1c-12.9,0-21.3,7.8-21.3,22
		v12.5H33.4v16.4h14.4v39.6c2.9,0.4,5.9,0.7,8.8,0.7c3,0,6-0.3,8.8-0.7V73.1H78.8z"/>
</g>
</svg>
