<?xml version="1.0" encoding="utf-8"?>
<!-- Generator: Adobe Illustrator 28.1.0, SVG Export Plug-In . SVG Version: 6.00 Build 0)  -->
<svg version="1.1" id="Capa_1" xmlns="http://www.w3.org/2000/svg" xmlns:xlink="http://www.w3.org/1999/xlink" x="0px" y="0px"
	 viewBox="0 0 113.4 113.4" style="enable-background:new 0 0 113.4 113.4;" xml:space="preserve">
<style type="text/css">
	.st0{fill:#020203;}
	.st1{fill:#FFFFFF;}
</style>
<g>
	<circle class="st0" cx="56.7" cy="56.7" r="56.7"/>
	<g>
		<g>
			<path class="st1" d="M56.7,27.5c9.5,0,10.7,0,14.4,0.2c3.4,0.2,5.4,0.8,6.6,1.3c1.7,0.7,2.9,1.4,4.1,2.7c1.3,1.3,2,2.4,2.7,4.1
				c0.5,1.3,1.1,3.1,1.3,6.6C86,46.1,86,47.2,86,56.8s0,10.7-0.2,14.4c-0.2,3.4-0.8,5.4-1.3,6.6c-0.7,1.7-1.4,2.9-2.7,4.1
				c-1.3,1.3-2.4,2-4.1,2.7c-1.3,0.5-3.1,1.1-6.6,1.3c-3.8,0.2-4.9,0.2-14.4,0.2c-9.5,0-10.7,0-14.4-0.2c-3.4-0.2-5.4-0.8-6.6-1.3
				c-1.7-0.7-2.9-1.4-4.1-2.7c-1.3-1.3-2-2.4-2.7-4.1c-0.5-1.3-1.1-3.1-1.3-6.6c-0.2-3.8-0.2-4.9-0.2-14.4s0-10.7,0.2-14.4
				c0.2-3.4,0.8-5.4,1.3-6.6c0.7-1.7,1.4-2.9,2.7-4.1c1.3-1.3,2.4-2,4.1-2.7c1.3-0.5,3.1-1.1,6.6-1.3C46,27.5,47.2,27.5,56.7,27.5
				 M56.7,21C47,21,45.8,21,42,21.2c-3.8,0.2-6.4,0.8-8.7,1.7C31,23.9,29,25,27,27c-2,2-3.2,3.9-4.1,6.3c-0.9,2.3-1.5,4.9-1.7,8.7
				C21,45.8,21,47,21,56.7s0,10.9,0.3,14.7c0.2,3.8,0.8,6.4,1.7,8.7c0.9,2.4,2.1,4.4,4.1,6.3c2,2,3.9,3.2,6.3,4.1
				c2.3,0.9,4.9,1.5,8.7,1.7c3.8,0.2,5,0.3,14.7,0.3s10.9,0,14.7-0.3c3.8-0.2,6.4-0.8,8.7-1.7c2.4-0.9,4.4-2.1,6.3-4.1
				c2-2,3.2-3.9,4.1-6.3c0.9-2.3,1.5-4.9,1.7-8.7s0.3-5,0.3-14.7s0-10.9-0.3-14.7c-0.2-3.8-0.8-6.4-1.7-8.7C89.5,31,88.4,29,86.3,27
				c-2-2-3.9-3.2-6.3-4.1c-2.3-0.9-4.9-1.5-8.7-1.7C67.6,21,66.4,21,56.7,21L56.7,21z"/>
			<path class="st1" d="M56.7,38.4c-10.2,0-18.3,8.2-18.3,18.3S46.6,75,56.7,75C66.9,75,75,66.8,75,56.7S66.9,38.4,56.7,38.4z
				 M56.7,68.6c-6.6,0-11.9-5.3-11.9-11.9s5.3-11.9,11.9-11.9s11.9,5.3,11.9,11.9S63.2,68.6,56.7,68.6z"/>
			<circle class="st1" cx="75.8" cy="37.6" r="4.3"/>
		</g>
	</g>
</g>
</svg>
