<?xml version="1.0" encoding="utf-8"?>
<!-- Generator: Adobe Illustrator 28.1.0, SVG Export Plug-In . SVG Version: 6.00 Build 0)  -->
<svg version="1.1" id="Capa_1" xmlns="http://www.w3.org/2000/svg" xmlns:xlink="http://www.w3.org/1999/xlink" x="0px" y="0px"
	 viewBox="0 0 113.4 113.4" style="enable-background:new 0 0 113.4 113.4;" xml:space="preserve">
<style type="text/css">
	.st0{fill:#020203;}
	.st1{fill:#FFFFFF;}
</style>
<g>
	<circle class="st0" cx="56.7" cy="56.7" r="56.7"/>
	<path class="st1" d="M84.3,33.7c-0.3-0.7-0.5-0.8-0.8-0.9c-0.9-0.3-2.4,0.2-2.4,0.2S28.1,51.9,25,54c-0.7,0.4-0.8,0.8-1,1
		c-0.5,1.5,1.1,2.2,1.1,2.2l13.7,4.5c0,0,0.5,0.1,0.7,0c3.1-1.9,31.2-19.7,32.8-20.3c0.3-0.1,0.4,0,0.4,0.2c-0.6,2.3-25,24-25,24
		s-0.1,0.1-0.2,0.3l0,0l-1.3,13.5c0,0-0.5,4.1,3.6,0c2.9-2.9,5.8-5.4,7.1-6.6c4.7,3.3,9.7,6.8,11.9,8.7c1.1,0.9,2,1.1,2.8,1.1
		c2.1-0.1,2.7-2.4,2.7-2.4s9.7-38.9,10-44.1c0-0.5,0.1-0.8,0.1-1.2C84.4,34.4,84.4,33.9,84.3,33.7z"/>
</g>
</svg>
