<?xml version="1.0" encoding="utf-8"?>
<!-- Generator: Adobe Illustrator 28.1.0, SVG Export Plug-In . SVG Version: 6.00 Build 0)  -->
<svg version="1.1" id="Capa_1" xmlns="http://www.w3.org/2000/svg" xmlns:xlink="http://www.w3.org/1999/xlink" x="0px" y="0px"
	 viewBox="0 0 113.4 113.4" style="enable-background:new 0 0 113.4 113.4;" xml:space="preserve">
<style type="text/css">
	.st0{fill:#020203;}
	.st1{fill:#FFFFFF;}
</style>
<g>
	<g>
		<circle class="st0" cx="56.7" cy="56.7" r="56.7"/>
	</g>
	<path class="st1" d="M88.4,38c0-0.3,0-0.3-0.3-0.3c-0.8,0-1.7-0.1-2.4-0.3c-3-0.4-12.6-5.5-14.3-13.7c0-0.2-0.4-2.2-0.4-3.1
		c0-0.4,0-0.4-0.4-0.4c-0.1,0-0.2,0-0.3,0c-3.8,0-7.6,0-11.3,0c-0.8,0-0.7-0.1-0.7,0.7c0,16.3,0,32.7,0,49c0,0.6,0,1.2-0.1,1.8
		c-0.6,3.2-2.2,5.6-5,7.3c-2.4,1.4-5,1.8-7.6,1.3c-0.8-0.2-1.7-0.5-2.5-0.8c-0.1-0.1-0.2-0.1-0.2-0.2c-0.3-0.3-0.6-0.4-0.8-0.6
		c-3.5-2.4-5.1-5.8-4.6-10c0.5-4.3,2.9-7.1,7-8.7c1.2-0.4,2.4-0.6,3.8-0.6c0.8,0.1,1.7,0.2,2.4,0.3c0.3,0.1,0.4,0,0.4-0.3
		c0-0.1,0-0.2,0-0.3c0-2.9-0.1-9.3-0.1-9.3c0-0.8,0-1.7,0-2.5c0-0.3-0.1-0.3-0.3-0.3c-1.5-0.2-3-0.3-4.5-0.1
		c-2.1,0.2-4.1,0.6-6.1,1.3c-3.2,1.2-6,2.9-8.4,5.3c-2.1,2-3.7,4.4-4.9,7c-1.2,2.5-1.8,5.2-1.9,7.9c-0.1,1.2-0.1,2.4,0.1,3.6
		c0.2,1.7,0.5,3.3,1,4.9c1.4,4.5,4.1,8.3,7.8,11.3c0.4,0.3,0.8,0.7,1.2,0.8l0,0c0.2,0.2,0.4,0.3,0.6,0.5c0.6,0.4,1.3,0.8,1.9,1.2
		c4.2,2.1,8.6,2.9,13.3,2.4c6-0.8,11.1-3.4,15-8c3.7-4.4,5.5-9.4,5.5-15.1c0.1-8.1,0-16.3,0-24.4c0-0.2-0.1-0.5,0.1-0.6
		c0.2-0.1,0.3,0.2,0.5,0.3c3,2,6.3,3.4,9.8,4.2c2,0.5,4.1,0.8,6.2,0.8c0.7,0,0.8,0,0.8-0.7C88.6,46.6,88.4,38.7,88.4,38z"/>
</g>
</svg>
