<?xml version="1.0" encoding="utf-8"?>
<!-- Generator: Adobe Illustrator 28.1.0, SVG Export Plug-In . SVG Version: 6.00 Build 0)  -->
<svg version="1.1" id="Capa_1" xmlns="http://www.w3.org/2000/svg" xmlns:xlink="http://www.w3.org/1999/xlink" x="0px" y="0px"
	 viewBox="0 0 113.4 113.4" style="enable-background:new 0 0 113.4 113.4;" xml:space="preserve">
<style type="text/css">
	.st0{fill-rule:evenodd;clip-rule:evenodd;fill:#020203;}
	.st1{fill:#FFFFFF;}
</style>
<g>
	<circle class="st0" cx="56.7" cy="56.7" r="56.7"/>
	<g>
		<g>
			<path class="st1" d="M45.3,89.4c27.7,0,42.8-22.9,42.8-42.8c0-0.7,0-1.3-0.1-1.9c2.9-2.1,5.5-4.8,7.5-7.8c-2.7,1.2-5.6,2-8.7,2.4
				c3.1-1.8,5.5-4.8,6.6-8.3c-2.9,1.8-6.1,2.9-9.6,3.7c-2.8-2.9-6.6-4.8-11-4.8c-8.3,0-15,6.7-15,15c0,1.2,0.2,2.4,0.4,3.4
				c-12.5-0.6-23.6-6.6-31-15.7c-1.3,2.2-2,4.8-2,7.6c0,5.2,2.7,9.8,6.7,12.5c-2.4-0.1-4.8-0.8-6.8-1.8c0,0.1,0,0.1,0,0.2
				c0,7.3,5.2,13.4,12.1,14.8c-1.3,0.3-2.6,0.5-3.9,0.5c-1,0-1.9-0.1-2.9-0.3c1.9,6,7.5,10.3,14,10.4c-5.1,4-11.7,6.5-18.7,6.5
				c-1.2,0-2.4-0.1-3.6-0.2C28.8,86.8,36.7,89.4,45.3,89.4"/>
		</g>
	</g>
</g>
</svg>
