<?xml version="1.0" encoding="utf-8"?>
<!-- Generator: Adobe Illustrator 28.1.0, SVG Export Plug-In . SVG Version: 6.00 Build 0)  -->
<svg version="1.1" id="Capa_1" xmlns="http://www.w3.org/2000/svg" xmlns:xlink="http://www.w3.org/1999/xlink" x="0px" y="0px"
	 viewBox="0 0 113.4 113.4" style="enable-background:new 0 0 113.4 113.4;" xml:space="preserve">
<style type="text/css">
	.st0{fill:#020203;}
	.st1{fill-rule:evenodd;clip-rule:evenodd;fill:#FFFFFF;}
</style>
<g>
	<circle class="st0" cx="56.7" cy="56.7" r="56.7"/>
	<g>
		<g id="WA_Logo_10_">
			<g>
				<path class="st1" d="M84,30.2c-6.8-6.8-15.8-10.5-25.4-10.6c-19.8,0-35.9,16.1-35.9,35.9c0,6.3,1.7,12.5,4.8,18l-5.1,18.6
					l19.1-5c5.3,2.9,11.2,4.4,17.2,4.4l0,0l0,0c19.8,0,35.9-16.1,35.9-35.9C94.5,45.9,90.8,37,84,30.2z M58.5,85.4L58.5,85.4
					c-5.4,0-10.7-1.4-15.2-4.2l-1.1-0.6l-11.3,2.9l3-11l-0.8-1.2c-3-4.8-4.5-10.2-4.5-15.9c0-16.5,13.4-29.9,29.9-29.9
					c8,0,15.5,3.1,21.2,8.7c5.6,5.6,8.7,13.2,8.7,21.2C88.4,72.1,75,85.4,58.5,85.4z M74.9,63.1c-0.9-0.4-5.3-2.6-6.1-2.9
					c-0.8-0.3-1.4-0.4-2,0.4c-0.6,0.9-2.4,2.9-2.9,3.5c-0.5,0.6-1,0.7-1.9,0.3c-0.9-0.4-3.8-1.4-7.2-4.5c-2.7-2.4-4.5-5.3-5-6.2
					c-0.5-0.9-0.1-1.3,0.4-1.8c0.4-0.4,0.9-1,1.3-1.6c0.4-0.5,0.6-0.9,0.9-1.5c0.3-0.6,0.2-1.1-0.1-1.6c-0.3-0.4-2-4.9-2.8-6.6
					c-0.8-1.8-1.5-1.5-2-1.5s-1.1,0-1.8,0c-0.6,0-1.6,0.3-2.4,1.1c-0.8,0.9-3.1,3.1-3.1,7.5c0,4.5,3.2,8.7,3.7,9.3
					c0.4,0.6,6.3,9.7,15.4,13.6c2.2,0.9,3.8,1.5,5.1,1.9c2.2,0.7,4.1,0.6,5.6,0.3c1.8-0.3,5.3-2.2,6-4.3c0.8-2.1,0.8-3.9,0.5-4.3
					C76.4,63.7,75.8,63.5,74.9,63.1z"/>
			</g>
		</g>
	</g>
</g>
</svg>
